{
	"asset":{
		"generator":"Khronos glTF Blender I/O v3.6.27",
		"version":"2.0"
	},
	"scene":0,
	"scenes":[
		{
			"name":"Scene",
			"nodes":[
				0
			]
		}
	],
	"nodes":[
		{
			"mesh":0,
			"name":"hand"
		}
	],
	"meshes":[
		{
			"extras":{
				"targetNames":[
					"shapekey"
				]
			},
			"name":"BezierCurve.001",
			"primitives":[
				{
					"attributes":{
						"POSITION":0,
						"NORMAL":1,
						"TEXCOORD_0":2
					},
					"indices":3,
					"targets":[
						{
							"POSITION":4,
							"NORMAL":5
						}
					]
				}
			],
			"weights":[
				0
			]
		}
	],
	"accessors":[
		{
			"bufferView":0,
			"componentType":5126,
			"count":362,
			"max":[
				0.8544304370880127,
				0.0494956336915493,
				0.18338465690612793
			],
			"min":[
				-0.0866842120885849,
				-0.3007686734199524,
				-0.3441995680332184
			],
			"type":"VEC3"
		},
		{
			"bufferView":1,
			"componentType":5126,
			"count":362,
			"type":"VEC3"
		},
		{
			"bufferView":2,
			"componentType":5126,
			"count":362,
			"type":"VEC2"
		},
		{
			"bufferView":3,
			"componentType":5123,
			"count":540,
			"type":"SCALAR"
		},
		{
			"bufferView":4,
			"componentType":5126,
			"count":362,
			"max":[
				0.22641059756278992,
				0.017629094421863556,
				0.00932619720697403
			],
			"min":[
				-0.017123818397521973,
				-0.26630303263664246,
				-0.009326253086328506
			],
			"type":"VEC3"
		},
		{
			"bufferView":5,
			"componentType":5126,
			"count":362,
			"type":"VEC3"
		}
	],
	"bufferViews":[
		{
			"buffer":0,
			"byteLength":4344,
			"byteOffset":0,
			"target":34962
		},
		{
			"buffer":0,
			"byteLength":4344,
			"byteOffset":4344,
			"target":34962
		},
		{
			"buffer":0,
			"byteLength":2896,
			"byteOffset":8688,
			"target":34962
		},
		{
			"buffer":0,
			"byteLength":1080,
			"byteOffset":11584,
			"target":34963
		},
		{
			"buffer":0,
			"byteLength":4344,
			"byteOffset":12664,
			"target":34962
		},
		{
			"buffer":0,
			"byteLength":4344,
			"byteOffset":17008,
			"target":34962
		}
	],
	"buffers":[
		{
			"byteLength":21352,
			"uri":"data:application/octet-stream;base64,"
		}
	]
}
